<?xml version="1.0" encoding="utf-8"?>
<!-- Generator: Adobe Illustrator 21.0.2, SVG Export Plug-In . SVG Version: 6.00 Build 0)  -->
<svg version="1.1" id="Layer_1" xmlns="http://www.w3.org/2000/svg" xmlns:xlink="http://www.w3.org/1999/xlink" x="0px" y="0px"
	 viewBox="0 0 3000 1416" style="enable-background:new 0 0 3000 1416;" xml:space="preserve">
<style type="text/css">
	.st0{fill:#28241C;}
	.st1{fill:#2D2820;}
	.st2{opacity:0.13;fill:#CCCCCC;}
	.st3{fill:#E6E6E6;}
</style>
<g>
	<polygon id="XMLID_16_" class="st0" points="180,-17.6 181.1,1272.9 -23.3,1412.6 -23.3,-17.6 	"/>
	<polygon id="XMLID_15_" class="st0" points="2788.9,-31.9 2790.1,1277.8 3024.7,1434.1 3024.7,-31.9 	"/>
	<polygon id="XMLID_14_" points="3024.7,1435 2790.5,1275.6 175.7,1275.6 -68.7,1434.5 	"/>
	<rect id="XMLID_13_" x="177.9" y="-13.1" class="st1" width="2615.4" height="1292.2"/>
	<path class="st2" d="M1388.9,132.9l-436.5,1200c0,0,212,136.1,549.5,136.1s540.8-127.2,540.8-127.2L1612.4,135.6L1388.9,132.9z"/>
	<ellipse class="st3" cx="562.9" cy="69.3" rx="56.2" ry="63.6"/>
	<path d="M512.2-11.3L398.5,73.8c0,0,173.1,41.2,331,0l-107-85.1H512.2z"/>
	<ellipse class="st3" cx="2395.2" cy="69.3" rx="56.2" ry="63.6"/>
	<ellipse class="st3" cx="1501.8" cy="110.5" rx="114.7" ry="129.6"/>
	<path d="M2342.3-10.4l-113.7,85.1c0,0,173.1,41.2,331,0l-107-85.1H2342.3z"/>
	<path d="M1402.7-31.9l-200.9,150.3c0,0,305.8,72.8,584.9,0l-189-150.3H1402.7z"/>
</g>
</svg>
