<svg id="Layer_1" data-name="Layer 1" xmlns="http://www.w3.org/2000/svg" viewBox="0 0 1250 800"><defs><style>.cls-1{fill:#28241c;}.cls-2{fill:#2d2820;}.cls-3{fill:#ccc;opacity:0.13;}.cls-4{fill:#e6e6e6;}</style></defs><title>Desktop</title><polygon id="_Path_" data-name="&lt;Path&gt;" class="cls-1" points="64.48 -1 64.94 719.5 -22.56 797.5 -22.56 -1 64.48 -1"/><polygon id="_Path_2" data-name="&lt;Path&gt;" class="cls-1" points="1181.08 -9 1181.58 722.22 1282 809.5 1282 -9 1181.08 -9"/><polygon id="_Path_3" data-name="&lt;Path&gt;" points="1282 810 1181.75 721 62.61 721 -42 809.75 1282 810"/><rect id="_Rectangle_" data-name="&lt;Rectangle&gt;" class="cls-2" x="63.55" y="1.5" width="1119.38" height="721.5"/><path class="cls-3" d="M581.84,83,395,753s90.74,76,235.17,76,231.47-71,231.47-71L677.54,84.5Z"/><ellipse class="cls-4" cx="228.36" cy="47.5" rx="24.07" ry="35.5"/><path d="M206.64,2.5,158,50s74.07,23,141.66,0L253.86,2.5Z"/><ellipse class="cls-4" cx="1012.57" cy="47.5" rx="24.07" ry="35.5"/><ellipse class="cls-4" cx="630.18" cy="70.5" rx="49.07" ry="72.37"/><path d="M989.93,3,941.28,50.5s74.07,23,141.66,0L1037.15,3Z"/><path d="M587.76-9l-86,83.94s130.89,40.64,250.32,0L671.19-9Z"/></svg>