<svg id="Layer_1" data-name="Layer 1" xmlns="http://www.w3.org/2000/svg" viewBox="0 0 1250 580"><defs><style>.cls-1{fill:#999;stroke:#000;stroke-miterlimit:10;}.cls-2{fill:gray;}.cls-3{fill:lime;}</style></defs><title>Desktop</title><rect id="_Rectangle_" data-name="&lt;Rectangle&gt;" class="cls-1" x="-12.89" y="-11" width="613.67" height="50.81"/><rect id="_Rectangle_2" data-name="&lt;Rectangle&gt;" class="cls-1" x="600.78" y="-11" width="613.67" height="50.81"/><rect id="_Rectangle_3" data-name="&lt;Rectangle&gt;" class="cls-1" x="806.17" y="39.81" width="464.83" height="50.81"/><rect id="_Rectangle_4" data-name="&lt;Rectangle&gt;" class="cls-1" x="-12.89" y="90.63" width="551.71" height="50.81"/><rect id="_Rectangle_5" data-name="&lt;Rectangle&gt;" class="cls-1" x="-12.89" y="39.81" width="205.39" height="50.81"/><rect id="_Rectangle_6" data-name="&lt;Rectangle&gt;" class="cls-1" x="306.7" y="141.44" width="613.67" height="50.81"/><rect id="_Rectangle_7" data-name="&lt;Rectangle&gt;" class="cls-1" x="645.5" y="192.25" width="613.67" height="50.81"/><rect id="_Rectangle_8" data-name="&lt;Rectangle&gt;" class="cls-1" x="-12.89" y="243.07" width="302.09" height="50.81"/><rect id="_Rectangle_9" data-name="&lt;Rectangle&gt;" class="cls-1" x="-12.91" y="293.8" width="54.38" height="50.81"/><rect id="_Rectangle_10" data-name="&lt;Rectangle&gt;" class="cls-1" x="-12.91" y="192.33" width="44.41" height="50.81"/><rect id="_Rectangle_11" data-name="&lt;Rectangle&gt;" class="cls-1" x="41.33" y="293.88" width="613.67" height="50.81"/><rect id="_Rectangle_12" data-name="&lt;Rectangle&gt;" class="cls-1" x="-12.89" y="344.69" width="315.59" height="50.81"/><rect id="_Rectangle_13" data-name="&lt;Rectangle&gt;" class="cls-1" x="-12.89" y="395.51" width="572.95" height="50.81"/><rect id="_Rectangle_14" data-name="&lt;Rectangle&gt;" class="cls-1" x="311.97" y="446.32" width="613.67" height="50.81"/><rect id="_Rectangle_15" data-name="&lt;Rectangle&gt;" class="cls-1" x="-12.89" y="497.13" width="325.09" height="50.81"/><rect id="_Rectangle_16" data-name="&lt;Rectangle&gt;" class="cls-1" x="139.81" y="547.95" width="613.67" height="27.05"/><rect id="_Rectangle_17" data-name="&lt;Rectangle&gt;" class="cls-1" x="925.87" y="497.13" width="345.13" height="50.81"/><rect id="_Rectangle_18" data-name="&lt;Rectangle&gt;" class="cls-1" x="1169.73" y="395.51" width="94.94" height="50.81"/><rect id="_Rectangle_19" data-name="&lt;Rectangle&gt;" class="cls-1" x="916.37" y="344.69" width="350.13" height="50.81"/><rect id="_Rectangle_20" data-name="&lt;Rectangle&gt;" class="cls-1" x="902.87" y="243.07" width="363.64" height="50.81"/><rect id="_Rectangle_21" data-name="&lt;Rectangle&gt;" class="cls-1" x="1148.49" y="90.63" width="116.18" height="50.81"/><rect id="_Rectangle_22" data-name="&lt;Rectangle&gt;" class="cls-1" x="192.5" y="39.81" width="613.67" height="50.81"/><rect id="_Rectangle_23" data-name="&lt;Rectangle&gt;" class="cls-1" x="538.82" y="90.63" width="613.67" height="50.81"/><rect id="_Rectangle_24" data-name="&lt;Rectangle&gt;" class="cls-1" x="31.83" y="192.25" width="613.67" height="50.81"/><rect id="_Rectangle_25" data-name="&lt;Rectangle&gt;" class="cls-1" x="289.2" y="243.07" width="613.67" height="50.81"/><rect id="_Rectangle_26" data-name="&lt;Rectangle&gt;" class="cls-1" x="655" y="293.88" width="613.67" height="50.81"/><rect id="_Rectangle_27" data-name="&lt;Rectangle&gt;" class="cls-1" x="302.7" y="344.69" width="613.67" height="50.81"/><rect id="_Rectangle_28" data-name="&lt;Rectangle&gt;" class="cls-1" x="560.06" y="395.51" width="613.67" height="50.81"/><rect id="_Rectangle_29" data-name="&lt;Rectangle&gt;" class="cls-1" x="925.87" y="446.32" width="342.8" height="50.81"/><rect id="_Rectangle_30" data-name="&lt;Rectangle&gt;" class="cls-1" x="312.2" y="497.13" width="613.67" height="50.81"/><rect id="_Rectangle_31" data-name="&lt;Rectangle&gt;" class="cls-1" x="753.48" y="547.95" width="517.52" height="27.05"/><rect id="_Rectangle_32" data-name="&lt;Rectangle&gt;" class="cls-1" x="921.12" y="141.44" width="345.38" height="50.81"/><rect id="_Rectangle_33" data-name="&lt;Rectangle&gt;" class="cls-1" x="1210.45" y="-11" width="54.22" height="50.81"/><rect id="_Rectangle_34" data-name="&lt;Rectangle&gt;" class="cls-1" x="-12.89" y="141.44" width="319.59" height="50.81"/><rect id="_Rectangle_35" data-name="&lt;Rectangle&gt;" class="cls-1" x="-12.89" y="446.32" width="325.39" height="50.81"/><rect id="_Rectangle_36" data-name="&lt;Rectangle&gt;" class="cls-1" x="-13.39" y="547.95" width="153.2" height="27.05"/><ellipse class="cls-2" cx="586.83" cy="-2.3" rx="5.5" ry="3.99"/><ellipse class="cls-2" cx="587.32" cy="29.23" rx="5.5" ry="3.99"/><ellipse class="cls-2" cx="208.01" cy="49.16" rx="5.5" ry="3.99"/><ellipse class="cls-2" cx="208.5" cy="80.69" rx="5.5" ry="3.99"/><ellipse class="cls-2" cx="177.02" cy="49.16" rx="5.5" ry="3.99"/><ellipse class="cls-2" cx="177.52" cy="80.69" rx="5.5" ry="3.99"/><ellipse class="cls-2" cx="517.86" cy="99.89" rx="5.5" ry="3.99"/><ellipse class="cls-2" cx="518.36" cy="131.42" rx="5.5" ry="3.99"/><ellipse class="cls-2" cx="329.95" cy="150.63" rx="5.5" ry="3.99"/><ellipse class="cls-2" cx="330.45" cy="182.16" rx="5.5" ry="3.99"/><ellipse class="cls-2" cx="272.97" cy="150.63" rx="5.5" ry="3.99"/><ellipse class="cls-2" cx="273.47" cy="182.16" rx="5.5" ry="3.99"/><ellipse class="cls-2" cx="895.68" cy="150.63" rx="5.5" ry="3.99"/><ellipse class="cls-2" cx="896.18" cy="182.16" rx="5.5" ry="3.99"/><ellipse class="cls-2" cx="947.65" cy="150.63" rx="5.5" ry="3.99"/><ellipse class="cls-2" cx="948.15" cy="182.16" rx="5.5" ry="3.99"/><ellipse class="cls-2" cx="1232.52" cy="202.09" rx="5.5" ry="3.99"/><ellipse class="cls-2" cx="1233.02" cy="233.62" rx="5.5" ry="3.99"/><ellipse class="cls-2" cx="663.79" cy="202.09" rx="5.5" ry="3.99"/><ellipse class="cls-2" cx="664.29" cy="233.62" rx="5.5" ry="3.99"/><ellipse class="cls-2" cx="623.81" cy="202.09" rx="5.5" ry="3.99"/><ellipse class="cls-2" cx="624.31" cy="233.62" rx="5.5" ry="3.99"/><ellipse class="cls-2" cx="266.98" cy="250.65" rx="5.5" ry="3.99"/><ellipse class="cls-2" cx="267.48" cy="282.18" rx="5.5" ry="3.99"/><ellipse class="cls-2" cx="314.95" cy="250.65" rx="5.5" ry="3.99"/><ellipse class="cls-2" cx="315.45" cy="282.18" rx="5.5" ry="3.99"/><ellipse class="cls-2" cx="876.69" cy="250.65" rx="5.5" ry="3.99"/><ellipse class="cls-2" cx="877.19" cy="282.18" rx="5.5" ry="3.99"/><ellipse class="cls-2" cx="925.66" cy="250.65" rx="5.5" ry="3.99"/><ellipse class="cls-2" cx="926.16" cy="282.18" rx="5.5" ry="3.99"/><ellipse class="cls-2" cx="669.79" cy="302.11" rx="5.5" ry="3.99"/><ellipse class="cls-2" cx="670.29" cy="333.64" rx="5.5" ry="3.99"/><ellipse class="cls-2" cx="629.8" cy="301.39" rx="5.5" ry="3.99"/><ellipse class="cls-2" cx="630.3" cy="332.92" rx="5.5" ry="3.99"/><ellipse class="cls-2" cx="278.97" cy="353.57" rx="5.5" ry="3.99"/><ellipse class="cls-2" cx="279.47" cy="385.1" rx="5.5" ry="3.99"/><ellipse class="cls-2" cx="334.94" cy="353.57" rx="5.5" ry="3.99"/><ellipse class="cls-2" cx="335.44" cy="385.1" rx="5.5" ry="3.99"/><ellipse class="cls-2" cx="895.68" cy="353.57" rx="5.5" ry="3.99"/><ellipse class="cls-2" cx="896.18" cy="385.1" rx="5.5" ry="3.99"/><ellipse class="cls-2" cx="941.66" cy="353.57" rx="5.5" ry="3.99"/><ellipse class="cls-2" cx="942.16" cy="385.1" rx="5.5" ry="3.99"/><ellipse class="cls-2" cx="1145.56" cy="403.59" rx="5.5" ry="3.99"/><ellipse class="cls-2" cx="1146.06" cy="435.11" rx="5.5" ry="3.99"/><ellipse class="cls-2" cx="1191.54" cy="403.59" rx="5.5" ry="3.99"/><ellipse class="cls-2" cx="1192.04" cy="435.11" rx="5.5" ry="3.99"/><ellipse class="cls-2" cx="536.85" cy="405.76" rx="5.5" ry="3.99"/><ellipse class="cls-2" cx="537.35" cy="437.29" rx="5.5" ry="3.99"/><ellipse class="cls-2" cx="582.83" cy="405.76" rx="5.5" ry="3.99"/><ellipse class="cls-2" cx="583.33" cy="437.29" rx="5.5" ry="3.99"/><ellipse class="cls-2" cx="288.97" cy="455.05" rx="5.5" ry="3.99"/><ellipse class="cls-2" cx="289.47" cy="486.57" rx="5.5" ry="3.99"/><ellipse class="cls-2" cx="334.94" cy="455.05" rx="5.5" ry="3.99"/><ellipse class="cls-2" cx="335.44" cy="486.57" rx="5.5" ry="3.99"/><ellipse class="cls-2" cx="288.97" cy="507.23" rx="5.5" ry="3.99"/><ellipse class="cls-2" cx="289.47" cy="538.76" rx="5.5" ry="3.99"/><ellipse class="cls-2" cx="160.53" cy="563.4" rx="5.5" ry="3.99"/><ellipse class="cls-2" cx="119.55" cy="563.4" rx="5.5" ry="3.99"/><ellipse class="cls-2" cx="334.94" cy="507.23" rx="5.5" ry="3.99"/><ellipse class="cls-2" cx="335.44" cy="538.76" rx="5.5" ry="3.99"/><ellipse class="cls-2" cx="903.67" cy="507.23" rx="5.5" ry="3.99"/><ellipse class="cls-2" cx="904.17" cy="538.76" rx="5.5" ry="3.99"/><ellipse class="cls-2" cx="949.65" cy="507.23" rx="5.5" ry="3.99"/><ellipse class="cls-2" cx="950.15" cy="538.76" rx="5.5" ry="3.99"/><ellipse class="cls-2" cx="903.67" cy="455.05" rx="5.5" ry="3.99"/><ellipse class="cls-2" cx="904.17" cy="486.57" rx="5.5" ry="3.99"/><ellipse class="cls-2" cx="949.65" cy="455.05" rx="5.5" ry="3.99"/><ellipse class="cls-2" cx="950.15" cy="486.57" rx="5.5" ry="3.99"/><ellipse class="cls-2" cx="559.84" cy="99.89" rx="5.5" ry="3.99"/><ellipse class="cls-2" cx="560.34" cy="131.42" rx="5.5" ry="3.99"/><ellipse class="cls-2" cx="789.73" cy="49.16" rx="5.5" ry="3.99"/><ellipse class="cls-2" cx="790.23" cy="80.69" rx="5.5" ry="3.99"/><ellipse class="cls-2" cx="614.81" cy="-2.3" rx="5.5" ry="3.99"/><ellipse class="cls-2" cx="615.31" cy="29.23" rx="5.5" ry="3.99"/><ellipse class="cls-2" cx="1195.54" cy="-2.3" rx="5.5" ry="3.99"/><ellipse class="cls-2" cx="1196.04" cy="29.23" rx="5.5" ry="3.99"/><ellipse class="cls-2" cx="1224.52" cy="-2.3" rx="5.5" ry="3.99"/><ellipse class="cls-2" cx="1225.02" cy="29.23" rx="5.5" ry="3.99"/><ellipse class="cls-2" cx="819.71" cy="49.88" rx="5.5" ry="3.99"/><ellipse class="cls-2" cx="820.21" cy="81.41" rx="5.5" ry="3.99"/><ellipse class="cls-2" cx="774.24" cy="561.23" rx="5.5" ry="3.99"/><ellipse class="cls-2" cx="733.26" cy="561.23" rx="5.5" ry="3.99"/><ellipse class="cls-2" cx="1249.01" cy="560.5" rx="5.5" ry="3.99"/><path class="cls-3" d="M581.33,141.78s-8.5,43.64,64.47,50.17,76,58,76,58-32,62.33,18,65.23,14-65.23,14-65.23-31.08-55.18,20.94-55.86,133.87-4.93,132.93-53.9c0,0,4.06-11.28-24.93-12.73S582.83,116.56,581.33,141.78Z"/><path class="cls-3" d="M-12.89,29.23S129,18.87,129,39.81s7,38.34-22,52.11-59.8,14.75-51.48,49.52c5.5,23,35.48,45.33-6,50.81s-8.25-50.81-8.25-50.81S62.07,102.38,14.6,90.63c0,0-31.49,1.29-32.48-6S-12.89,29.23-12.89,29.23Z"/><path class="cls-3" d="M896.18-10.36s29,4.8,24,29.44-9,37,11,38.41,11-37.69,11-37.69-5-19.57,11-18.12,27,9.42,25,21.74,12,10.87,12,10.87,10-1.45,7-10.87,5-21,23-19.57,22,23.92,13,57.26,18.49,30.5,18.49,30.5,9.5,2.84,4.5-29.78,14-58.71,14-58.71,29-8.7,24,28.27,16,39.86,22,28.27-12-53.64,7-55.81,51,5.8,40,62.33,22,46.39,22,46.39,18,2.9,9-48.56c0,0-10-68.86,29.49-75Z"/></svg>