<svg id="Layer_1" data-name="Layer 1" xmlns="http://www.w3.org/2000/svg" viewBox="0 0 1250 800"><defs><style>.cls-1{fill:#999;stroke:#000;stroke-miterlimit:10;}.cls-2{fill:gray;}.cls-3{fill:lime;}</style></defs><title>Desktop</title><rect id="_Rectangle_" data-name="&lt;Rectangle&gt;" class="cls-1" x="-12.89" y="2" width="613.67" height="70.11"/><rect id="_Rectangle_2" data-name="&lt;Rectangle&gt;" class="cls-1" x="600.78" y="2" width="613.67" height="70.11"/><rect id="_Rectangle_3" data-name="&lt;Rectangle&gt;" class="cls-1" x="806.17" y="72.11" width="464.83" height="70.11"/><rect id="_Rectangle_4" data-name="&lt;Rectangle&gt;" class="cls-1" x="-12.89" y="142.21" width="551.71" height="70.11"/><rect id="_Rectangle_5" data-name="&lt;Rectangle&gt;" class="cls-1" x="-12.89" y="72.11" width="205.39" height="70.11"/><rect id="_Rectangle_6" data-name="&lt;Rectangle&gt;" class="cls-1" x="306.7" y="212.32" width="613.67" height="70.11"/><rect id="_Rectangle_7" data-name="&lt;Rectangle&gt;" class="cls-1" x="645.5" y="282.43" width="613.67" height="70.11"/><rect id="_Rectangle_8" data-name="&lt;Rectangle&gt;" class="cls-1" x="-12.89" y="352.53" width="302.09" height="70.11"/><rect id="_Rectangle_9" data-name="&lt;Rectangle&gt;" class="cls-1" x="-12.91" y="422.53" width="54.38" height="70.11"/><rect id="_Rectangle_10" data-name="&lt;Rectangle&gt;" class="cls-1" x="-12.91" y="282.53" width="44.41" height="70.11"/><rect id="_Rectangle_11" data-name="&lt;Rectangle&gt;" class="cls-1" x="41.33" y="422.64" width="613.67" height="70.11"/><rect id="_Rectangle_12" data-name="&lt;Rectangle&gt;" class="cls-1" x="-12.89" y="492.75" width="315.59" height="70.11"/><rect id="_Rectangle_13" data-name="&lt;Rectangle&gt;" class="cls-1" x="-12.89" y="562.86" width="572.95" height="70.11"/><rect id="_Rectangle_14" data-name="&lt;Rectangle&gt;" class="cls-1" x="311.97" y="632.96" width="613.67" height="70.11"/><rect id="_Rectangle_15" data-name="&lt;Rectangle&gt;" class="cls-1" x="-12.89" y="703.07" width="325.09" height="70.11"/><rect id="_Rectangle_16" data-name="&lt;Rectangle&gt;" class="cls-1" x="139.81" y="773.18" width="613.67" height="37.32"/><rect id="_Rectangle_17" data-name="&lt;Rectangle&gt;" class="cls-1" x="925.87" y="703.07" width="345.13" height="70.11"/><rect id="_Rectangle_18" data-name="&lt;Rectangle&gt;" class="cls-1" x="1169.73" y="562.86" width="94.94" height="70.11"/><rect id="_Rectangle_19" data-name="&lt;Rectangle&gt;" class="cls-1" x="916.37" y="492.75" width="350.13" height="70.11"/><rect id="_Rectangle_20" data-name="&lt;Rectangle&gt;" class="cls-1" x="902.87" y="352.53" width="363.64" height="70.11"/><rect id="_Rectangle_21" data-name="&lt;Rectangle&gt;" class="cls-1" x="1148.49" y="142.21" width="116.18" height="70.11"/><rect id="_Rectangle_22" data-name="&lt;Rectangle&gt;" class="cls-1" x="192.5" y="72.11" width="613.67" height="70.11"/><rect id="_Rectangle_23" data-name="&lt;Rectangle&gt;" class="cls-1" x="538.82" y="142.21" width="613.67" height="70.11"/><rect id="_Rectangle_24" data-name="&lt;Rectangle&gt;" class="cls-1" x="31.83" y="282.43" width="613.67" height="70.11"/><rect id="_Rectangle_25" data-name="&lt;Rectangle&gt;" class="cls-1" x="289.2" y="352.53" width="613.67" height="70.11"/><rect id="_Rectangle_26" data-name="&lt;Rectangle&gt;" class="cls-1" x="655" y="422.64" width="613.67" height="70.11"/><rect id="_Rectangle_27" data-name="&lt;Rectangle&gt;" class="cls-1" x="302.7" y="492.75" width="613.67" height="70.11"/><rect id="_Rectangle_28" data-name="&lt;Rectangle&gt;" class="cls-1" x="560.06" y="562.86" width="613.67" height="70.11"/><rect id="_Rectangle_29" data-name="&lt;Rectangle&gt;" class="cls-1" x="925.87" y="632.96" width="342.8" height="70.11"/><rect id="_Rectangle_30" data-name="&lt;Rectangle&gt;" class="cls-1" x="312.2" y="703.07" width="613.67" height="70.11"/><rect id="_Rectangle_31" data-name="&lt;Rectangle&gt;" class="cls-1" x="753.48" y="773.18" width="517.52" height="37.32"/><rect id="_Rectangle_32" data-name="&lt;Rectangle&gt;" class="cls-1" x="921.12" y="212.32" width="345.38" height="70.11"/><rect id="_Rectangle_33" data-name="&lt;Rectangle&gt;" class="cls-1" x="1210.45" y="2" width="54.22" height="70.11"/><rect id="_Rectangle_34" data-name="&lt;Rectangle&gt;" class="cls-1" x="-12.89" y="212.32" width="319.59" height="70.11"/><rect id="_Rectangle_35" data-name="&lt;Rectangle&gt;" class="cls-1" x="-12.89" y="632.96" width="325.39" height="70.11"/><rect id="_Rectangle_36" data-name="&lt;Rectangle&gt;" class="cls-1" x="-13.39" y="773.18" width="153.2" height="37.32"/><circle class="cls-2" cx="586.83" cy="14" r="5.5"/><circle class="cls-2" cx="587.32" cy="57.5" r="5.5"/><circle class="cls-2" cx="208.01" cy="85" r="5.5"/><circle class="cls-2" cx="208.5" cy="128.5" r="5.5"/><circle class="cls-2" cx="177.02" cy="85" r="5.5"/><circle class="cls-2" cx="177.52" cy="128.5" r="5.5"/><circle class="cls-2" cx="517.86" cy="155" r="5.5"/><circle class="cls-2" cx="518.36" cy="198.5" r="5.5"/><circle class="cls-2" cx="329.95" cy="225" r="5.5"/><circle class="cls-2" cx="330.45" cy="268.5" r="5.5"/><circle class="cls-2" cx="272.97" cy="225" r="5.5"/><circle class="cls-2" cx="273.47" cy="268.5" r="5.5"/><circle class="cls-2" cx="895.68" cy="225" r="5.5"/><circle class="cls-2" cx="896.18" cy="268.5" r="5.5"/><circle class="cls-2" cx="947.65" cy="225" r="5.5"/><circle class="cls-2" cx="948.15" cy="268.5" r="5.5"/><circle class="cls-2" cx="1232.52" cy="296" r="5.5"/><circle class="cls-2" cx="1233.02" cy="339.5" r="5.5"/><circle class="cls-2" cx="663.79" cy="296" r="5.5"/><circle class="cls-2" cx="664.29" cy="339.5" r="5.5"/><circle class="cls-2" cx="623.81" cy="296" r="5.5"/><circle class="cls-2" cx="624.31" cy="339.5" r="5.5"/><circle class="cls-2" cx="266.98" cy="363" r="5.5"/><circle class="cls-2" cx="267.48" cy="406.5" r="5.5"/><circle class="cls-2" cx="314.95" cy="363" r="5.5"/><circle class="cls-2" cx="315.45" cy="406.5" r="5.5"/><circle class="cls-2" cx="876.69" cy="363" r="5.5"/><circle class="cls-2" cx="877.19" cy="406.5" r="5.5"/><circle class="cls-2" cx="925.66" cy="363" r="5.5"/><circle class="cls-2" cx="926.16" cy="406.5" r="5.5"/><circle class="cls-2" cx="669.79" cy="434" r="5.5"/><circle class="cls-2" cx="670.29" cy="477.5" r="5.5"/><circle class="cls-2" cx="629.8" cy="433" r="5.5"/><circle class="cls-2" cx="630.3" cy="476.5" r="5.5"/><circle class="cls-2" cx="278.97" cy="505" r="5.5"/><circle class="cls-2" cx="279.47" cy="548.5" r="5.5"/><circle class="cls-2" cx="334.94" cy="505" r="5.5"/><circle class="cls-2" cx="335.44" cy="548.5" r="5.5"/><circle class="cls-2" cx="895.68" cy="505" r="5.5"/><circle class="cls-2" cx="896.18" cy="548.5" r="5.5"/><circle class="cls-2" cx="941.66" cy="505" r="5.5"/><circle class="cls-2" cx="942.16" cy="548.5" r="5.5"/><circle class="cls-2" cx="1145.56" cy="574" r="5.5"/><circle class="cls-2" cx="1146.06" cy="617.5" r="5.5"/><circle class="cls-2" cx="1191.54" cy="574" r="5.5"/><circle class="cls-2" cx="1192.04" cy="617.5" r="5.5"/><circle class="cls-2" cx="536.85" cy="577" r="5.5"/><circle class="cls-2" cx="537.35" cy="620.5" r="5.5"/><circle class="cls-2" cx="582.83" cy="577" r="5.5"/><circle class="cls-2" cx="583.33" cy="620.5" r="5.5"/><circle class="cls-2" cx="288.97" cy="645" r="5.5"/><circle class="cls-2" cx="289.47" cy="688.5" r="5.5"/><circle class="cls-2" cx="334.94" cy="645" r="5.5"/><circle class="cls-2" cx="335.44" cy="688.5" r="5.5"/><circle class="cls-2" cx="288.97" cy="717" r="5.5"/><circle class="cls-2" cx="289.47" cy="760.5" r="5.5"/><circle class="cls-2" cx="160.53" cy="794.5" r="5.5"/><circle class="cls-2" cx="119.55" cy="794.5" r="5.5"/><circle class="cls-2" cx="334.94" cy="717" r="5.5"/><circle class="cls-2" cx="335.44" cy="760.5" r="5.5"/><circle class="cls-2" cx="903.67" cy="717" r="5.5"/><circle class="cls-2" cx="904.17" cy="760.5" r="5.5"/><circle class="cls-2" cx="949.65" cy="717" r="5.5"/><circle class="cls-2" cx="950.15" cy="760.5" r="5.5"/><circle class="cls-2" cx="903.67" cy="645" r="5.5"/><circle class="cls-2" cx="904.17" cy="688.5" r="5.5"/><circle class="cls-2" cx="949.65" cy="645" r="5.5"/><circle class="cls-2" cx="950.15" cy="688.5" r="5.5"/><circle class="cls-2" cx="559.84" cy="155" r="5.5"/><circle class="cls-2" cx="560.34" cy="198.5" r="5.5"/><circle class="cls-2" cx="789.73" cy="85" r="5.5"/><circle class="cls-2" cx="790.23" cy="128.5" r="5.5"/><circle class="cls-2" cx="614.81" cy="14" r="5.5"/><circle class="cls-2" cx="615.31" cy="57.5" r="5.5"/><circle class="cls-2" cx="1195.54" cy="14" r="5.5"/><circle class="cls-2" cx="1196.04" cy="57.5" r="5.5"/><circle class="cls-2" cx="1224.52" cy="14" r="5.5"/><circle class="cls-2" cx="1225.02" cy="57.5" r="5.5"/><circle class="cls-2" cx="819.71" cy="86" r="5.5"/><circle class="cls-2" cx="820.21" cy="129.5" r="5.5"/><circle class="cls-2" cx="774.24" cy="791.5" r="5.5"/><circle class="cls-2" cx="733.26" cy="791.5" r="5.5"/><circle class="cls-2" cx="1249.01" cy="790.5" r="5.5"/><path class="cls-3" d="M581.33,212.78S572.83,273,645.8,282s76,80,76,80-32,86,18,90,14-90,14-90-31.08-76.13,20.94-77.07,133.87-6.8,132.93-74.37c0,0,4.06-15.56-24.93-17.56S582.83,178,581.33,212.78Z"/><path class="cls-3" d="M-12.89,57.5S129,43.21,129,72.11s7,52.89-22,71.89-59.8,20.36-51.48,68.32c5.5,31.68,35.48,62.53-6,70.11s-8.25-70.11-8.25-70.11,20.74-53.89-26.74-70.11c0,0-31.49,1.79-32.48-8.21S-12.89,57.5-12.89,57.5Z"/><path class="cls-3" d="M896.18,2.88s29,6.62,24,40.62-9,51,11,53,11-52,11-52-5-27,11-25,27,13,25,30,12,15,12,15,10-2,7-15,5-29,23-27,22,33,13,79,18.49,42.09,18.49,42.09,9.5,3.91,4.5-41.09,14-81,14-81,29-12,24,39,16,55,22,39-12-74,7-77,51,8,40,86,22,64,22,64,18,4,9-67c0,0-10-95,29.49-103.5Z"/></svg>