<svg id="Layer_1" data-name="Layer 1" xmlns="http://www.w3.org/2000/svg" viewBox="0 0 1250 580"><defs><style>.cls-1{fill:#28241c;}.cls-2{fill:#2d2820;}.cls-3{fill:#ccc;opacity:0.13;}.cls-4{fill:#e6e6e6;}</style></defs><title>Desktop</title><polygon id="_Path_" data-name="&lt;Path&gt;" class="cls-1" points="64.48 -11.04 64.94 525.46 -22.56 583.54 -22.56 -11.04 64.48 -11.04"/><polygon id="_Path_2" data-name="&lt;Path&gt;" class="cls-1" points="1181.08 -17 1181.58 527.49 1282 592.48 1282 -17 1181.08 -17"/><polygon id="_Path_3" data-name="&lt;Path&gt;" points="1282 592.85 1181.75 526.58 62.61 526.58 -42 592.67 1282 592.85"/><rect id="_Rectangle_" data-name="&lt;Rectangle&gt;" class="cls-2" x="63.55" y="-9.18" width="1119.38" height="537.25"/><path class="cls-3" d="M581.84,51.51,395,550.41S485.75,607,630.18,607s231.47-52.87,231.47-52.87L677.54,52.62Z"/><ellipse class="cls-4" cx="228.36" cy="25.07" rx="24.07" ry="26.43"/><path d="M206.64-8.44,158,26.93s74.07,17.13,141.66,0L253.86-8.44Z"/><ellipse class="cls-4" cx="1012.57" cy="25.07" rx="24.07" ry="26.43"/><ellipse class="cls-4" cx="630.18" cy="42.2" rx="49.07" ry="53.89"/><path d="M989.93-8.06,941.28,27.31s74.07,17.13,141.66,0L1037.15-8.06Z"/><path d="M587.76-17l-86,62.5s130.89,30.26,250.32,0L671.19-17Z"/></svg>