<?xml version="1.0" encoding="utf-8"?>
<!-- Generator: Adobe Illustrator 21.0.2, SVG Export Plug-In . SVG Version: 6.00 Build 0)  -->
<svg version="1.1" id="Layer_1" xmlns="http://www.w3.org/2000/svg" xmlns:xlink="http://www.w3.org/1999/xlink" x="0px" y="0px"
	 viewBox="0 0 3000 1416" style="enable-background:new 0 0 3000 1416;" xml:space="preserve">
<style type="text/css">
	.st0{fill:#808080;stroke:#000000;stroke-miterlimit:10;}
	.st1{fill:#999999;stroke:#000000;stroke-miterlimit:10;}
	.st2{fill:#4D4D4D;}
	.st3{fill:#00FF00;}
</style>
<rect id="XMLID_71_" x="-25.8" class="st0" width="1459.2" height="122.8"/>
<rect id="XMLID_96_" x="1433.3" class="st0" width="1459.2" height="122.8"/>
<rect id="XMLID_97_" x="1921.7" y="122.8" class="st0" width="1105.3" height="122.8"/>
<rect id="XMLID_98_" x="-25.8" y="245.6" class="st0" width="1311.9" height="122.8"/>
<rect id="XMLID_113_" x="-25.8" y="122.8" class="st0" width="488.4" height="122.8"/>
<rect id="XMLID_130_" x="734.1" y="368.4" class="st0" width="1459.2" height="122.8"/>
<rect id="XMLID_131_" x="1539.7" y="491.1" class="st0" width="1459.2" height="122.8"/>
<rect id="XMLID_133_" x="-25.8" y="613.9" class="st0" width="718.3" height="122.8"/>
<rect id="XMLID_1_" x="-25.9" y="736.5" class="st0" width="129.3" height="122.8"/>
<rect id="XMLID_4_" x="-25.9" y="491.3" class="st0" width="105.6" height="122.8"/>
<rect id="XMLID_164_" x="103.1" y="736.7" class="st0" width="1459.2" height="122.8"/>
<rect id="XMLID_178_" x="-25.8" y="859.5" class="st0" width="750.4" height="122.8"/>
<rect id="XMLID_179_" x="-25.8" y="982.3" class="st0" width="1362.4" height="122.8"/>
<rect id="XMLID_180_" x="746.6" y="1105.1" class="st0" width="1459.2" height="122.8"/>
<rect id="XMLID_181_" x="-25.8" y="1227.8" class="st0" width="773" height="122.8"/>
<rect id="XMLID_271_" x="337.2" y="1350.6" class="st0" width="1459.2" height="65.4"/>
<rect id="XMLID_182_" x="2206.3" y="1227.8" class="st0" width="820.7" height="122.8"/>
<rect id="XMLID_183_" x="2786.2" y="982.3" class="st0" width="225.8" height="122.8"/>
<rect id="XMLID_184_" x="2183.8" y="859.5" class="st0" width="832.5" height="122.8"/>
<rect id="XMLID_198_" x="2151.6" y="613.9" class="st0" width="864.7" height="122.8"/>
<rect id="XMLID_199_" x="2735.7" y="245.6" class="st0" width="276.3" height="122.8"/>
<rect id="XMLID_86_" x="462.5" y="122.8" class="st0" width="1459.2" height="122.8"/>
<rect id="XMLID_87_" x="1286" y="245.6" class="st0" width="1459.2" height="122.8"/>
<rect id="XMLID_89_" x="80.5" y="491.1" class="st0" width="1459.2" height="122.8"/>
<rect id="XMLID_90_" x="692.5" y="613.9" class="st0" width="1459.2" height="122.8"/>
<rect id="XMLID_91_" x="1562.3" y="736.7" class="st0" width="1459.2" height="122.8"/>
<rect id="XMLID_94_" x="724.6" y="859.5" class="st0" width="1459.2" height="122.8"/>
<rect id="XMLID_93_" x="1336.5" y="982.3" class="st0" width="1459.2" height="122.8"/>
<rect id="XMLID_92_" x="2206.3" y="1105.1" class="st0" width="815.1" height="122.8"/>
<rect id="XMLID_95_" x="747.2" y="1227.8" class="st0" width="1459.2" height="122.8"/>
<rect id="XMLID_272_" x="1796.4" y="1350.6" class="st0" width="1230.6" height="65.4"/>
<rect id="XMLID_88_" x="2195" y="368.4" class="st0" width="821.3" height="122.8"/>
<rect id="XMLID_213_" x="2883" class="st0" width="128.9" height="122.8"/>
<rect id="XMLID_227_" x="-25.8" y="368.4" class="st0" width="759.9" height="122.8"/>
<rect id="XMLID_242_" x="-25.8" y="1105.1" class="st0" width="773.7" height="122.8"/>
<rect id="XMLID_243_" x="-27" y="1350.6" class="st0" width="364.3" height="65.4"/>
<rect id="XMLID_244_" x="2989.4" y="491.1" class="st1" width="17.4" height="122.8"/>
<ellipse class="st2" cx="1400.2" cy="21" rx="13.1" ry="9.6"/>
<ellipse class="st2" cx="1401.3" cy="97.2" rx="13.1" ry="9.6"/>
<ellipse class="st2" cx="499.4" cy="145.4" rx="13.1" ry="9.6"/>
<ellipse class="st2" cx="500.6" cy="221.6" rx="13.1" ry="9.6"/>
<ellipse class="st2" cx="425.7" cy="145.4" rx="13.1" ry="9.6"/>
<ellipse class="st2" cx="426.9" cy="221.6" rx="13.1" ry="9.6"/>
<ellipse class="st2" cx="1236.2" cy="268" rx="13.1" ry="9.6"/>
<ellipse class="st2" cx="1237.4" cy="344.1" rx="13.1" ry="9.6"/>
<ellipse class="st2" cx="789.4" cy="390.6" rx="13.1" ry="9.6"/>
<ellipse class="st2" cx="790.5" cy="466.7" rx="13.1" ry="9.6"/>
<ellipse class="st2" cx="653.9" cy="390.6" rx="13.1" ry="9.6"/>
<ellipse class="st2" cx="655.1" cy="466.7" rx="13.1" ry="9.6"/>
<ellipse class="st2" cx="2134.6" cy="390.6" rx="13.1" ry="9.6"/>
<ellipse class="st2" cx="2135.7" cy="466.7" rx="13.1" ry="9.6"/>
<ellipse class="st2" cx="2258.1" cy="390.6" rx="13.1" ry="9.6"/>
<ellipse class="st2" cx="2259.3" cy="466.7" rx="13.1" ry="9.6"/>
<ellipse class="st2" cx="2935.5" cy="514.9" rx="13.1" ry="9.6"/>
<ellipse class="st2" cx="2936.7" cy="591.1" rx="13.1" ry="9.6"/>
<ellipse class="st2" cx="1583.2" cy="514.9" rx="13.1" ry="9.6"/>
<ellipse class="st2" cx="1584.4" cy="591.1" rx="13.1" ry="9.6"/>
<ellipse class="st2" cx="1488.1" cy="514.9" rx="13.1" ry="9.6"/>
<ellipse class="st2" cx="1489.3" cy="591.1" rx="13.1" ry="9.6"/>
<ellipse class="st2" cx="639.6" cy="632.3" rx="13.1" ry="9.6"/>
<ellipse class="st2" cx="640.8" cy="708.4" rx="13.1" ry="9.6"/>
<ellipse class="st2" cx="753.7" cy="632.3" rx="13.1" ry="9.6"/>
<ellipse class="st2" cx="754.9" cy="708.4" rx="13.1" ry="9.6"/>
<ellipse class="st2" cx="2089.4" cy="632.3" rx="13.1" ry="9.6"/>
<ellipse class="st2" cx="2090.6" cy="708.4" rx="13.1" ry="9.6"/>
<ellipse class="st2" cx="2205.9" cy="632.3" rx="13.1" ry="9.6"/>
<ellipse class="st2" cx="2207" cy="708.4" rx="13.1" ry="9.6"/>
<ellipse class="st2" cx="2997.3" cy="756.6" rx="13.1" ry="9.6"/>
<ellipse class="st2" cx="2998.5" cy="832.8" rx="13.1" ry="9.6"/>
<ellipse class="st2" cx="1597.4" cy="756.6" rx="13.1" ry="9.6"/>
<ellipse class="st2" cx="1598.6" cy="832.8" rx="13.1" ry="9.6"/>
<ellipse class="st2" cx="1502.4" cy="754.8" rx="13.1" ry="9.6"/>
<ellipse class="st2" cx="1503.5" cy="831" rx="13.1" ry="9.6"/>
<ellipse class="st2" cx="668.1" cy="880.9" rx="13.1" ry="9.6"/>
<ellipse class="st2" cx="669.3" cy="957.1" rx="13.1" ry="9.6"/>
<ellipse class="st2" cx="801.2" cy="880.9" rx="13.1" ry="9.6"/>
<ellipse class="st2" cx="802.4" cy="957.1" rx="13.1" ry="9.6"/>
<ellipse class="st2" cx="2134.6" cy="880.9" rx="13.1" ry="9.6"/>
<ellipse class="st2" cx="2135.7" cy="957.1" rx="13.1" ry="9.6"/>
<ellipse class="st2" cx="2243.9" cy="880.9" rx="13.1" ry="9.6"/>
<ellipse class="st2" cx="2245.1" cy="957.1" rx="13.1" ry="9.6"/>
<ellipse class="st2" cx="2728.7" cy="1001.8" rx="13.1" ry="9.6"/>
<ellipse class="st2" cx="2729.9" cy="1078" rx="13.1" ry="9.6"/>
<ellipse class="st2" cx="2838.1" cy="1001.8" rx="13.1" ry="9.6"/>
<ellipse class="st2" cx="2839.2" cy="1078" rx="13.1" ry="9.6"/>
<ellipse class="st2" cx="1281.3" cy="1007.1" rx="13.1" ry="9.6"/>
<ellipse class="st2" cx="1282.5" cy="1083.2" rx="13.1" ry="9.6"/>
<ellipse class="st2" cx="1390.7" cy="1007.1" rx="13.1" ry="9.6"/>
<ellipse class="st2" cx="1391.8" cy="1083.2" rx="13.1" ry="9.6"/>
<ellipse class="st2" cx="691.9" cy="1126.1" rx="13.1" ry="9.6"/>
<ellipse class="st2" cx="693.1" cy="1202.3" rx="13.1" ry="9.6"/>
<ellipse class="st2" cx="801.2" cy="1126.1" rx="13.1" ry="9.6"/>
<ellipse class="st2" cx="802.4" cy="1202.3" rx="13.1" ry="9.6"/>
<ellipse class="st2" cx="691.9" cy="1252.2" rx="13.1" ry="9.6"/>
<ellipse class="st2" cx="693.1" cy="1328.4" rx="13.1" ry="9.6"/>
<ellipse class="st2" cx="386.5" cy="1388" rx="13.1" ry="9.6"/>
<ellipse class="st2" cx="289.1" cy="1388" rx="13.1" ry="9.6"/>
<ellipse class="st2" cx="801.2" cy="1252.2" rx="13.1" ry="9.6"/>
<ellipse class="st2" cx="802.4" cy="1328.4" rx="13.1" ry="9.6"/>
<ellipse class="st2" cx="2153.6" cy="1252.2" rx="13.1" ry="9.6"/>
<ellipse class="st2" cx="2154.8" cy="1328.4" rx="13.1" ry="9.6"/>
<ellipse class="st2" cx="2262.9" cy="1252.2" rx="13.1" ry="9.6"/>
<ellipse class="st2" cx="2264.1" cy="1328.4" rx="13.1" ry="9.6"/>
<ellipse class="st2" cx="2153.6" cy="1126.1" rx="13.1" ry="9.6"/>
<ellipse class="st2" cx="2154.8" cy="1202.3" rx="13.1" ry="9.6"/>
<ellipse class="st2" cx="2262.9" cy="1126.1" rx="13.1" ry="9.6"/>
<ellipse class="st2" cx="2264.1" cy="1202.3" rx="13.1" ry="9.6"/>
<ellipse class="st2" cx="1336" cy="268" rx="13.1" ry="9.6"/>
<ellipse class="st2" cx="1337.2" cy="344.1" rx="13.1" ry="9.6"/>
<ellipse class="st2" cx="1882.6" cy="145.4" rx="13.1" ry="9.6"/>
<ellipse class="st2" cx="1883.8" cy="221.6" rx="13.1" ry="9.6"/>
<ellipse class="st2" cx="1466.7" cy="21" rx="13.1" ry="9.6"/>
<ellipse class="st2" cx="1467.9" cy="97.2" rx="13.1" ry="9.6"/>
<ellipse class="st2" cx="2847.6" cy="21" rx="13.1" ry="9.6"/>
<ellipse class="st2" cx="2848.7" cy="97.2" rx="13.1" ry="9.6"/>
<ellipse class="st2" cx="2916.5" cy="21" rx="13.1" ry="9.6"/>
<ellipse class="st2" cx="2917.7" cy="97.2" rx="13.1" ry="9.6"/>
<ellipse class="st2" cx="1953.9" cy="147.1" rx="13.1" ry="9.6"/>
<ellipse class="st2" cx="1955.1" cy="223.3" rx="13.1" ry="9.6"/>
<ellipse class="st2" cx="1845.8" cy="1382.7" rx="13.1" ry="9.6"/>
<ellipse class="st2" cx="1748.3" cy="1382.7" rx="13.1" ry="9.6"/>
<ellipse class="st2" cx="2974.7" cy="1381" rx="13.1" ry="9.6"/>
<path class="st3" d="M1387.1,369.2c0,0-20.2,105.5,153.3,121.2c173.5,15.8,180.6,140.1,180.6,140.1s-76.1,150.6,42.8,157.6
	s33.3-157.6,33.3-157.6s-73.9-133.3,49.8-135s318.3-11.9,316.1-130.2c0,0,9.6-27.3-59.3-30.8S1390.7,308.2,1387.1,369.2z"/>
<path class="st3" d="M-25.8,97.2c0,0,337.5-25,337.5,25.6s16.6,92.6-52.3,125.9S117.2,284.4,137,368.4
	c13.1,55.5,84.4,109.5-14.3,122.8s-19.6-122.8-19.6-122.8s49.3-94.4-63.6-122.8c0,0-74.9,3.1-77.2-14.4S-25.8,97.2-25.8,97.2z"/>
<path class="st3" d="M2135.7,1.5c0,0,68.9,11.6,57,71.1c-11.9,59.5-21.4,89.3,26.1,92.8c47.5,3.5,26.1-91.1,26.1-91.1
	s-11.9-47.3,26.1-43.8c38,3.5,64.2,22.8,59.4,52.5s28.5,26.3,28.5,26.3s23.8-3.5,16.6-26.3s11.9-50.8,54.7-47.3
	c42.8,3.5,52.3,57.8,30.9,138.4s44,73.7,44,73.7s22.6,6.9,10.7-72c-11.9-78.8,33.3-141.9,33.3-141.9s68.9-21,57,68.3
	c-11.9,89.3,38,96.3,52.3,68.3c14.3-28-28.5-129.6,16.6-134.9s121.2,14,95.1,150.6c-26.1,136.6,52.3,112.1,52.3,112.1
	s42.8,7,21.4-117.3c0,0-23.8-166.4,70.1-181.3L2135.7,1.5z"/>
</svg>
