<svg id="Layer_1" data-name="Layer 1" xmlns="http://www.w3.org/2000/svg" viewBox="0 0 1250 580"><defs><style>.cls-1,.cls-2,.cls-8{fill:#fff;}.cls-1,.cls-10,.cls-11,.cls-3,.cls-4,.cls-5,.cls-6,.cls-7,.cls-8,.cls-9{stroke:#000;stroke-miterlimit:10;}.cls-1,.cls-3,.cls-5,.cls-6,.cls-7,.cls-9{stroke-width:2px;}.cls-3{fill:none;}.cls-10,.cls-11,.cls-4,.cls-8{stroke-width:0.5px;}.cls-5{fill:#d2bc78;}.cls-6{fill:#c2f9ce;}.cls-7{fill:#e873ac;}.cls-9{fill:#f0a8ca;}.cls-10{fill:#e81e25;}.cls-11{fill:#d91f26;}.cls-12{fill:#fff980;opacity:0.19;}</style></defs><title>Rokymonster</title><path id="_Path_" data-name="&lt;Path&gt;" class="cls-1" d="M1081.6,422.82s33.59-.06,49.08-35.74c0,0-.67-15.88-15.48-17.92,0,0-12.37,24.53-34.8,33.44C1080.39,402.59,1066.86,412.28,1081.6,422.82Z"/><path id="_Path_2" data-name="&lt;Path&gt;" class="cls-1" d="M911.58,489.26l-5.78,57.63s22.49,10.51,36.95,0v-44.7Z"/><path id="_Path_3" data-name="&lt;Path&gt;" class="cls-1" d="M1031.33,493.58l5.39,53.64s-20.94,9.78-34.39,0V505.61Z"/><path id="_Path_4" data-name="&lt;Path&gt;" class="cls-1" d="M855.92,423.87s-33.82-2.61-46.74-39.22c0,0,1.87-15.71,16.94-16.62,0,0,10.61,25.3,32.53,35.85C858.66,403.88,871.55,414.54,855.92,423.87Z"/><g id="_Group_" data-name="&lt;Group&gt;"><ellipse class="cls-2" cx="970.33" cy="376.3" rx="125.38" ry="138.64"/><ellipse class="cls-3" cx="970.33" cy="376.3" rx="125.38" ry="138.64"/></g><path id="_Path_5" data-name="&lt;Path&gt;" class="cls-4" d="M994.88,240.32s-10.36,9.65,7.45,22.07c0,0,2.29,30.21,34.58,23.18,0,0,15.7,33.84,33.93,7.82C1070.83,293.39,1038.55,251.16,994.88,240.32Z"/><path id="_Path_6" data-name="&lt;Path&gt;" class="cls-5" d="M1015.3,247.85s24.47,5.09,43.84-26.51c0,0,21.41-26.2,20.39,13.4s-26.5,50.82-26.5,50.82S1006.13,275.38,1015.3,247.85Z"/><path id="_Path_7" data-name="&lt;Path&gt;" class="cls-5" d="M926.48,247.85s-24.47,5.09-43.84-26.51c0,0-21.4-26.2-20.39,13.4s26.5,50.82,26.5,50.82S935.66,275.38,926.48,247.85Z"/><circle id="_Path_8" data-name="&lt;Path&gt;" class="cls-6" cx="968.65" cy="351.59" r="81.55"/><path id="_Path_9" data-name="&lt;Path&gt;" class="cls-7" d="M915.23,360h107s-2,53-53.52,53S915.23,360,915.23,360Z"/><polygon id="_Path_10" data-name="&lt;Path&gt;" class="cls-8" points="932.38 360.96 938.2 376.35 942.75 360.96 932.38 360.96"/><polygon id="_Path_11" data-name="&lt;Path&gt;" class="cls-8" points="991.96 360.96 997.78 376.35 1002.32 360.96 991.96 360.96"/><path id="_Path_12" data-name="&lt;Path&gt;" class="cls-9" d="M949.52,407c-5.65-6.58-5.81-17-.85-24a27.75,27.75,0,0,1,5-5.44c2.94-2.34,6.78-4.93,10.68-3.61,2.61.88,4.73,3.58,4.3,6.36-.92,6-8.66,8.83-9,15.16-.2,4.13,4.52,3.24,6.83,2.12a16.57,16.57,0,0,0,8.58-10.51c.54-2,.55-6.47,3.07-7.07,3-.72,6.95,1.24,9.15,3.15,3.64,3.18,5,8.12,4.78,12.83-.45,8.33-4.3,14.07-13,15.23C968.61,412.65,954.55,412.88,949.52,407Z"/><path id="_Path_13" data-name="&lt;Path&gt;" class="cls-4" d="M866.85,297.22s36.63,35.13-19.27,54C847.59,351.2,849.44,332.66,866.85,297.22Z"/><path id="_Path_14" data-name="&lt;Path&gt;" class="cls-4" d="M1095.72,376.3s-47.9,20.37-9.57,53.21C1086.14,429.51,1097.46,399.34,1095.72,376.3Z"/><path id="_Path_15" data-name="&lt;Path&gt;" class="cls-4" d="M887.1,392.08s-25.41,6.93-8,26.8c0,0-8.65,29.19,20.54,24.22,0,0,4.58,34.15,32.72,18.63,0,0,38.7,3,30.62-28.59,0,0-50.44-5.76-68.07-46.64C894.93,386.49,886.33,364.66,887.1,392.08Z"/><path id="_Path_16" data-name="&lt;Path&gt;" class="cls-4" d="M1002.32,510.38s-16-30,11.79-44.6,36.09,17.39,36.09,17.39S1025.59,506.18,1002.32,510.38Z"/><path id="_Path_17" data-name="&lt;Path&gt;" class="cls-4" d="M904.17,494.07s35.08-20.28,38.58,17.47C942.75,511.54,918.69,505.73,904.17,494.07Z"/><circle id="_Path_18" data-name="&lt;Path&gt;" class="cls-10" cx="1005.25" cy="321.88" r="22.38"/><circle id="_Path_19" data-name="&lt;Path&gt;" class="cls-10" cx="932.38" cy="321.88" r="22.38"/><path id="_Path_20" data-name="&lt;Path&gt;" class="cls-4" d="M831.31,378.64l-17.7,16.46-3.9-11.28s2.22-15.39,15.78-15.49Z"/><path id="_Path_21" data-name="&lt;Path&gt;" class="cls-4" d="M1107.7,380.42l17.57,16.39,4.79-10.2s-1.44-16.73-15.47-16.84Z"/><path id="_Path_22" data-name="&lt;Path&gt;" class="cls-4" d="M1002.32,534.39l32.74-3.73,1.66,15.93s-21.78,10.14-34.4.83Z"/><path id="_Path_23" data-name="&lt;Path&gt;" class="cls-4" d="M942.25,534,907,530.14l-.83,16.36s23.12,9.54,36.05,0Z"/><circle id="_Path_24" data-name="&lt;Path&gt;" class="cls-8" cx="1013.29" cy="313.01" r="7.26"/><circle id="_Path_25" data-name="&lt;Path&gt;" class="cls-8" cx="1003.7" cy="322.95" r="3.72"/><circle id="_Path_26" data-name="&lt;Path&gt;" class="cls-8" cx="937.89" cy="313.01" r="7.26"/><circle id="_Path_27" data-name="&lt;Path&gt;" class="cls-8" cx="928.3" cy="322.95" r="3.72"/><path id="_Path_28" data-name="&lt;Path&gt;" class="cls-11" d="M935.77,369.92s-.14-1.9,1.37-2.07a1.54,1.54,0,0,1,1.42.81s.85-2.84,2.27-1.2l-2.62,8.89s-.37,3,1.07,4.54c0,0,1.56,2.08-1.71,3.08,0,0-4.69,0-1.79-6.84l1.79-2.47Z"/><path class="cls-12" d="M914.89-64.79,760,565s64.44,67.84,222.73,67.84S1188.5,565,1188.5,565L1028-64.79Z"/><path id="_Path_29" data-name="&lt;Path&gt;" class="cls-11" d="M995.14,369.36c-.57-1.56,1.52-3,2.92-2.73a2.06,2.06,0,0,1,1.19,1,2.18,2.18,0,0,1,.16-1.43c.34-.53,1-.1,1.33.19l-2.33,7.89s-.56,3.38,3.21,3.46a2.5,2.5,0,0,1,1.94.76c1,1.13.28,2.87-.84,3.61a3.81,3.81,0,0,1-2.38.56,3,3,0,0,1-2.72-2.68,7.64,7.64,0,0,1-.21-2.25c0-.34.09-.68.14-1a1.74,1.74,0,0,0,.08-.58Z"/></svg>